<?xml version="1.0" encoding="utf-8"?>
<svg version="1.0" xmlns="http://www.w3.org/2000/svg" width="512.000000pt" height="512.000000pt" viewBox="23.353 24.061 465.294 464.586" preserveAspectRatio="xMidYMid meet">
  <g transform="translate(0.000000,512.000000) scale(0.100000,-0.100000)" stroke="none">
    <path d="M2305 4845 c-544 -60 -1068 -327 -1441 -735 -283 -310 -476 -687 -559 -1097 -82 -406 -48 -862 91 -1243 49 -132 161 -357 234 -469 196 -301 484 -570 800 -750 517 -293 1123 -374 1704 -227 311 79 604 226 877 441 98 77 278 260 360 365 256 330 410 691 474 1115 21 133 24 448 6 580 -74 557 -317 1039 -709 1404 -503 470 -1160 690 -1837 616z m550 -106 c60 -10 77 -17 123 -57 64 -55 141 -156 182 -238 16 -34 30 -64 30 -67 0 -3 -51 -32 -114 -66 -108 -57 -340 -199 -392 -240 -20 -15 -31 -17 -62 -10 -115 27 -635 35 -897 13 l-70 -6 -102 144 -101 143 21 39 c36 64 105 134 155 157 241 109 519 184 757 203 88 7 397 -3 470 -15z m377 -85 c422 -133 819 -418 1099 -789 37 -49 66 -91 65 -93 -2 -1 -66 22 -142 52 -76 30 -184 70 -240 89 -95 33 -118 47 -409 255 l-308 221 -39 82 c-21 46 -56 106 -76 134 -67 89 -70 87 50 49z m-1883 -284 c-13 -20 -159 -107 -159 -95 0 9 162 126 168 121 3 -3 -1 -15 -9 -26z m1076 -390 c203 -13 199 -12 242 -84 76 -129 214 -396 263 -508 l50 -117 -153 -223 c-85 -123 -202 -295 -261 -383 l-106 -161 -440 -23 c-241 -12 -444 -20 -449 -17 -14 9 -101 155 -145 243 -59 118 -151 339 -201 485 l-47 137 107 163 c117 178 286 407 332 451 l30 28 204 8 c294 11 416 12 574 1z m1717 -221 c77 -28 185 -69 240 -92 96 -40 103 -45 130 -91 104 -177 203 -492 238 -762 10 -76 9 -85 -20 -185 -47 -158 -78 -254 -122 -366 l-39 -101 -62 14 c-86 20 -230 64 -240 74 -5 4 -28 65 -51 136 -70 208 -181 481 -264 649 l-78 156 43 192 c24 106 51 245 60 310 10 64 19 117 22 117 2 0 67 -23 143 -51z m-3547 -305 c-10 -60 -29 -130 -50 -179 -52 -122 -95 -246 -137 -395 -36 -126 -38 -131 -33 -70 10 107 52 302 95 430 37 112 129 325 137 317 2 -2 -4 -49 -12 -103z m533 -291 c84 -246 194 -490 302 -672 l62 -103 -52 -168 c-55 -182 -114 -407 -125 -482 l-7 -46 -62 -11 c-51 -9 -378 -50 -509 -65 l-39 -4 -62 96 c-69 106 -143 236 -201 352 -52 103 -55 161 -20 371 41 247 110 511 184 710 l21 55 73 17 c65 15 147 30 217 41 14 2 61 4 105 5 l80 1 33 -97z m2347 41 c72 -8 168 -23 215 -32 l84 -18 38 -64 c77 -134 243 -534 328 -793 l22 -68 -43 -72 c-119 -202 -285 -436 -390 -551 l-63 -69 -126 7 c-69 4 -179 14 -245 22 -175 21 -487 64 -507 70 -23 7 -37 44 -158 433 l-107 345 93 143 c52 80 169 253 261 386 91 133 173 252 182 265 16 23 18 23 151 18 74 -3 194 -13 265 -22z m1278 -891 c-10 -106 -64 -345 -103 -458 -60 -174 -218 -495 -244 -495 -15 0 0 40 63 176 75 162 125 309 147 434 9 52 29 122 44 155 15 33 43 99 61 148 18 48 33 87 34 87 2 0 0 -21 -2 -47z m-3318 -794 c190 -167 361 -293 498 -368 52 -29 78 -50 81 -64 3 -12 12 -62 21 -112 24 -133 61 -268 101 -368 20 -49 34 -90 32 -93 -9 -9 -156 -34 -232 -40 -78 -6 -86 -5 -176 31 -345 137 -647 354 -882 635 -44 52 -86 107 -94 122 -19 36 -44 158 -44 212 l0 43 128 12 c70 7 195 23 277 36 217 32 198 35 290 -46z m1468 -4 c275 -39 502 -64 644 -71 l132 -7 17 -56 c28 -96 54 -229 60 -304 l6 -72 -104 -102 c-56 -56 -121 -116 -143 -134 -129 -101 -325 -213 -482 -273 l-92 -36 -170 0 c-238 0 -459 30 -486 67 -42 55 -111 262 -144 432 -37 185 -43 159 51 216 129 78 396 257 468 314 36 28 66 51 68 51 2 0 81 -11 175 -25z m1440 -242 c8 -12 -105 -148 -211 -256 -244 -248 -530 -431 -841 -538 -47 -16 -87 -29 -90 -29 -3 0 38 24 91 53 186 100 385 256 504 395 54 63 79 83 157 125 116 62 303 185 341 226 30 32 41 37 49 24z"/>
  </g>
</svg>