<?xml version="1.0" encoding="utf-8"?>
<svg version="1.0" xmlns="http://www.w3.org/2000/svg" width="512.000000pt" height="512.000000pt" viewBox="26.184 23.353 453.263 463.171" preserveAspectRatio="xMidYMid meet">
  <g transform="translate(0.000000,512.000000) scale(0.100000,-0.100000)" stroke="none">
    <path d="M1687 4832 c-10 -10 -17 -29 -17 -43 0 -32 169 -529 188 -551 24 -28 78 -23 99 9 17 26 16 30 -72 291 -50 146 -98 275 -108 288 -22 29 -67 32 -90 6z"/>
    <path d="M2498 4753 c-8 -10 -46 -103 -83 -206 l-68 -188 20 -27 c22 -30 73 -41 91 -20 17 21 142 373 142 401 0 51 -69 78 -102 40z"/>
    <path d="M1085 4300 c-21 -23 -23 -67 -4 -85 36 -34 346 -225 366 -225 51 0 82 70 46 102 -46 40 -348 228 -368 228 -12 0 -30 -9 -40 -20z"/>
    <path d="M3787 4076 c-63 -23 -157 -109 -157 -144 0 -20 -15 -14 -44 17 -40 42 -120 74 -183 73 -145 -1 -241 -85 -298 -259 -9 -29 -19 -53 -21 -53 -3 0 -26 16 -51 35 -116 89 -279 73 -377 -36 -45 -50 -42 -42 -185 -444 -35 -99 -40 -107 -49 -85 -70 178 -90 219 -126 258 -61 66 -107 86 -196 87 -65 0 -82 -4 -129 -30 -29 -16 -60 -40 -68 -52 -15 -23 -33 -31 -33 -14 0 33 -77 186 -112 222 -105 108 -275 110 -377 5 l-34 -35 -27 43 c-48 75 -140 125 -230 126 -142 0 -270 -133 -270 -279 0 -41 8 -72 38 -148 l21 -52 -58 1 c-148 2 -268 -129 -264 -288 1 -41 38 -144 188 -524 102 -260 184 -474 182 -476 -2 -2 -59 30 -128 72 -144 87 -200 108 -268 102 -100 -10 -201 -93 -230 -188 -27 -91 -5 -198 55 -268 38 -45 201 -180 484 -403 455 -357 537 -408 740 -460 260 -65 565 -7 805 154 77 52 204 175 251 243 l36 52 72 -38 c170 -92 436 -136 631 -106 185 28 332 91 492 213 279 211 826 666 856 711 59 90 63 214 11 299 -83 134 -229 168 -424 99 -52 -18 -112 -41 -134 -50 -29 -13 -37 -14 -34 -4 3 7 72 195 154 418 139 378 149 410 149 475 0 165 -120 282 -284 276 -44 -1 -52 1 -47 14 52 138 55 217 11 305 -61 119 -212 180 -338 136z m173 -135 c50 -26 80 -74 80 -127 0 -31 -32 -130 -109 -336 -228 -613 -262 -714 -252 -742 23 -59 91 -53 117 10 8 19 66 178 129 351 70 194 123 325 137 340 33 36 71 53 118 53 77 0 141 -62 142 -139 0 -29 -49 -176 -172 -509 l-172 -468 -64 -23 -63 -23 -83 21 c-189 48 -334 16 -504 -113 -83 -62 -99 -94 -64 -131 31 -33 50 -32 102 8 178 136 274 161 433 116 123 -35 115 -36 310 41 99 39 218 87 265 107 96 40 199 54 249 33 16 -6 41 -28 55 -48 35 -52 41 -99 21 -150 -15 -36 -54 -72 -259 -240 -573 -470 -656 -533 -761 -583 -250 -120 -556 -113 -808 19 -52 27 -66 39 -61 51 37 92 57 156 75 243 18 86 20 125 16 243 -7 186 -22 240 -191 672 l-137 353 106 301 c58 167 113 314 121 328 24 39 62 63 110 69 55 6 96 -11 134 -55 49 -56 44 -90 -65 -397 -52 -148 -95 -279 -95 -291 0 -31 46 -67 74 -59 33 9 40 24 101 197 153 433 268 743 285 768 25 34 78 59 127 59 76 0 143 -68 143 -145 0 -26 -49 -182 -136 -435 -147 -425 -148 -428 -92 -459 25 -14 29 -14 54 4 21 16 46 75 135 330 225 642 243 688 268 718 47 56 119 71 181 38z m-2771 -319 c33 -27 49 -64 218 -503 178 -462 200 -509 239 -509 22 0 54 38 54 64 0 13 -59 178 -131 367 -73 189 -134 365 -137 390 -9 93 51 159 144 159 51 0 93 -20 119 -57 15 -22 99 -229 211 -523 41 -107 91 -236 110 -286 40 -103 64 -125 112 -102 47 23 41 54 -64 323 -53 138 -99 268 -102 291 -5 48 14 90 58 128 61 51 178 28 215 -43 30 -59 433 -1117 451 -1186 28 -106 26 -360 -4 -470 -99 -359 -388 -619 -753 -676 -91 -14 -262 -6 -344 16 -177 48 -284 122 -1006 702 -133 106 -154 137 -147 215 6 58 31 96 79 121 63 33 95 22 332 -121 120 -73 227 -132 239 -132 28 0 58 28 58 55 0 11 -101 276 -225 587 -124 312 -225 581 -225 598 0 149 181 198 268 72 10 -15 70 -160 132 -322 62 -162 120 -303 128 -312 8 -10 26 -18 39 -18 27 0 63 32 63 57 0 9 -47 136 -104 282 -181 462 -266 690 -266 715 0 125 143 196 239 118z"/>
    <path d="M3720 1155 c-23 -27 -15 -67 18 -95 17 -14 103 -65 191 -114 172 -95 200 -101 223 -51 24 53 9 68 -180 175 -180 102 -225 117 -252 85z"/>
    <path d="M3280 880 c-11 -11 -20 -29 -20 -41 0 -11 48 -137 107 -281 113 -275 121 -288 178 -274 15 4 30 17 36 33 9 24 -4 61 -96 288 -59 143 -116 268 -127 278 -27 22 -53 22 -78 -3z"/>
    <path d="M2792 753 c-14 -12 -39 -80 -78 -212 -54 -180 -57 -195 -43 -220 17 -30 63 -40 92 -19 20 15 127 358 127 407 0 52 -58 78 -98 44z"/>
  </g>
</svg>