<svg xmlns="http://www.w3.org/2000/svg" viewBox="9.927 8.1 79.959 83.686">
  <path d="m50 78.125c4.6914 0 9.0859-1.2461 12.898-3.4023-0.17188-0.20703-0.42188-0.34766-0.71094-0.34766h-24.375c-0.28906 0-0.53906 0.14062-0.71094 0.34766 3.8125 2.1562 8.207 3.4023 12.898 3.4023z"/>
  <path d="m37.812 65h24.375c0.51562 0 0.9375 0.51562 0.9375 0.9375v3.75c0 0.51562-0.41797 0.9375-0.9375 0.9375h-24.375c-0.51562 0-0.9375-0.51562-0.9375-0.9375v-3.75c0-0.51562 0.41797-0.9375 0.9375-0.9375z"/>
  <path d="m37.812 53.75h24.375c0.51562 0 0.9375 0.51562 0.9375 0.9375v5.625c0 0.51562-0.41797 0.9375-0.9375 0.9375h-24.375c-0.51562 0-0.9375-0.51562-0.9375-0.9375v-5.625c0-0.51562 0.41797-0.9375 0.9375-0.9375z"/>
  <path d="m61.258 14.152 14.145 15.484c1.7539 1.9102 2.2109 4.6875 1.1641 7.0703-0.097656 0.21875-0.21484 0.42188-0.33203 0.625 2.3945 4.3086 3.7695 9.2617 3.7695 14.543 0 16.57-13.43 30-30 30-16.57 0-30-13.43-30-30 0-5.2773 1.375-10.234 3.7695-14.543-0.11719-0.20312-0.23438-0.40625-0.33203-0.625-1.0508-2.3789-0.58984-5.1562 1.1641-7.0742l14.141-15.48c-16.258 4.8438-28.117 19.891-28.117 37.723 0 21.746 17.629 39.375 39.375 39.375s39.375-17.629 39.375-39.375c0-17.832-11.859-32.875-28.117-37.723z"/>
  <path d="m70.57 36.871h-6.5078c-0.51953 0-0.9375 0.42188-0.9375 0.9375v11.254c0 0.51953-0.42188 0.9375-0.9375 0.9375h-24.375c-0.51953 0-0.9375-0.42188-0.9375-0.9375v-11.254c0-0.51953-0.42188-0.9375-0.9375-0.9375h-6.5078c-2.4375 0-3.7148-2.9062-2.0625-4.707l20.551-22.5c1.125-1.2188 3.0352-1.2188 4.1602 0l20.551 22.5c1.6484 1.8008 0.375 4.707-2.0625 4.707z"/>
</svg>