<?xml version="1.0" encoding="utf-8"?>
<svg class="bi rank-icon" xmlns="http://www.w3.org/2000/svg" viewBox="10.897 0.653 78.369 98.585" style="width: 1.25em; height: 1.25em; vertical-align: -0.15em;">
  <path d="M 51.084 1.539 L 87.302 19.141 C 88.113 19.536 88.586 20.348 88.59 21.192 L 88.59 37.766 C 88.59 39.028 87.565 40.047 86.304 40.047 C 85.908 40.047 85.54 39.949 85.22 39.774 L 50.086 22.7 L 14.866 39.813 C 13.731 40.363 12.361 39.895 11.808 38.758 C 11.652 38.438 11.578 38.094 11.578 37.758 L 11.578 21.184 C 11.578 20.246 12.141 19.446 12.952 19.09 L 49.088 1.528 C 49.745 1.212 50.481 1.235 51.092 1.532 L 51.084 1.539 Z M 51.084 60.187 L 87.302 77.789 C 88.113 78.184 88.586 78.996 88.59 79.84 L 88.59 96.414 C 88.59 97.676 87.565 98.695 86.304 98.695 C 85.908 98.695 85.54 98.597 85.22 98.422 L 50.086 81.348 L 14.866 98.465 C 13.731 99.015 12.361 98.547 11.808 97.41 C 11.652 97.09 11.578 96.746 11.578 96.41 L 11.578 79.836 C 11.578 78.898 12.141 78.098 12.952 77.742 L 49.088 60.183 C 49.745 59.867 50.481 59.89 51.092 60.183 L 51.084 60.187 Z M 84.013 81.265 L 50.078 64.773 L 16.143 81.265 L 16.143 92.765 L 49.072 76.761 C 49.682 76.464 50.419 76.441 51.076 76.761 L 84.009 92.765 L 84.009 81.265 L 84.013 81.265 Z M 51.084 30.863 L 87.302 48.465 C 88.113 48.86 88.586 49.672 88.59 50.516 L 88.59 67.09 C 88.59 68.352 87.565 69.371 86.304 69.371 C 85.908 69.371 85.54 69.273 85.22 69.098 L 50.086 52.024 L 14.866 69.137 C 13.731 69.687 12.361 69.219 11.808 68.082 C 11.652 67.762 11.578 67.418 11.578 67.082 L 11.578 50.508 C 11.578 49.57 12.141 48.77 12.952 48.418 L 49.088 30.856 C 49.745 30.54 50.481 30.563 51.092 30.856 L 51.084 30.863 Z" fill-rule="evenodd" style=""/>
</svg>