<?xml version="1.0" encoding="utf-8"?>
<svg xmlns="http://www.w3.org/2000/svg" version="1.1" x="0px" y="0px" viewBox="4.665 -6.565 90.497 115.497">
  <g transform="translate(0,-952.36218)">
    <path style="font-size:medium;font-style:normal;font-variant:normal;font-weight:normal;font-stretch:normal;text-indent:0;text-align:start;text-decoration:none;line-height:normal;letter-spacing:normal;word-spacing:normal;text-transform:none;direction:ltr;block-progression:tb;writing-mode:lr-tb;text-anchor:start;baseline-shift:baseline;opacity:1;color:#000000;fill:#000000;fill-opacity:1;stroke:none;stroke-width:4;marker:none;visibility:visible;display:inline;overflow:visible;enable-background:accumulate;font-family:Sans;-inkscape-font-specification:Sans" d="M 49.78125 5.96875 A 2.0002 2.0002 0 0 0 48 8 L 48 32 A 2.0002 2.0002 0 1 0 52 32 L 52 8 A 2.0002 2.0002 0 0 0 49.78125 5.96875 z M 7.8125 48 A 2.0021961 2.0021961 0 1 0 8 52 L 32 52 A 2.0002 2.0002 0 1 0 32 48 L 8 48 A 2.0002 2.0002 0 0 0 7.8125 48 z M 67.8125 48 A 2.0021961 2.0021961 0 1 0 68 52 L 92 52 A 2.0002 2.0002 0 1 0 92 48 L 68 48 A 2.0002 2.0002 0 0 0 67.8125 48 z M 49.78125 65.96875 A 2.0002 2.0002 0 0 0 48 68 L 48 92 A 2.0002 2.0002 0 1 0 52 92 L 52 68 A 2.0002 2.0002 0 0 0 49.78125 65.96875 z " transform="translate(0,952.36218)"/>
  </g>
</svg>